<mxfile host="app.diagrams.net" agent="Mozilla/5.0 (Windows NT 10.0; Win64; x64) AppleWebKit/537.36 (KHTML, like Gecko) Chrome/134.0.0.0 YaBrowser/25.4.0.0 Safari/537.36" version="27.0.2">
  <diagram name="Страница — 1" id="YSs6ahS8XZoPBrqjosKt">
    <mxGraphModel dx="2123" dy="2423" grid="1" gridSize="10" guides="1" tooltips="1" connect="1" arrows="1" fold="1" page="1" pageScale="1" pageWidth="827" pageHeight="1169" math="0" shadow="0">
      <root>
        <mxCell id="0" />
        <mxCell id="1" parent="0" />
        <mxCell id="8qIt2EoNWS3R_uUc7VmZ-1" value="" style="whiteSpace=wrap;html=1;aspect=fixed;" parent="1" vertex="1">
          <mxGeometry x="150" y="-140" width="1260" height="1260" as="geometry" />
        </mxCell>
        <mxCell id="8qIt2EoNWS3R_uUc7VmZ-21" style="edgeStyle=orthogonalEdgeStyle;rounded=0;orthogonalLoop=1;jettySize=auto;html=1;entryX=0;entryY=0.5;entryDx=0;entryDy=0;" parent="1" source="8qIt2EoNWS3R_uUc7VmZ-2" target="8qIt2EoNWS3R_uUc7VmZ-8" edge="1">
          <mxGeometry relative="1" as="geometry" />
        </mxCell>
        <mxCell id="-RrKpvEbUyqXBDjPTacY-3" style="edgeStyle=orthogonalEdgeStyle;rounded=0;orthogonalLoop=1;jettySize=auto;html=1;entryX=0;entryY=0.5;entryDx=0;entryDy=0;" edge="1" parent="1" source="8qIt2EoNWS3R_uUc7VmZ-2" target="-RrKpvEbUyqXBDjPTacY-2">
          <mxGeometry relative="1" as="geometry" />
        </mxCell>
        <mxCell id="-RrKpvEbUyqXBDjPTacY-17" style="edgeStyle=orthogonalEdgeStyle;rounded=0;orthogonalLoop=1;jettySize=auto;html=1;entryX=0;entryY=0.5;entryDx=0;entryDy=0;" edge="1" parent="1" source="8qIt2EoNWS3R_uUc7VmZ-2" target="-RrKpvEbUyqXBDjPTacY-13">
          <mxGeometry relative="1" as="geometry" />
        </mxCell>
        <mxCell id="-RrKpvEbUyqXBDjPTacY-19" style="edgeStyle=orthogonalEdgeStyle;rounded=0;orthogonalLoop=1;jettySize=auto;html=1;entryX=0;entryY=0.5;entryDx=0;entryDy=0;" edge="1" parent="1" source="8qIt2EoNWS3R_uUc7VmZ-2" target="-RrKpvEbUyqXBDjPTacY-18">
          <mxGeometry relative="1" as="geometry" />
        </mxCell>
        <mxCell id="-RrKpvEbUyqXBDjPTacY-21" style="edgeStyle=orthogonalEdgeStyle;rounded=0;orthogonalLoop=1;jettySize=auto;html=1;entryX=0;entryY=0.5;entryDx=0;entryDy=0;" edge="1" parent="1" source="8qIt2EoNWS3R_uUc7VmZ-2" target="-RrKpvEbUyqXBDjPTacY-20">
          <mxGeometry relative="1" as="geometry">
            <Array as="points">
              <mxPoint x="180" y="130" />
              <mxPoint x="180" y="180" />
              <mxPoint x="520" y="180" />
              <mxPoint x="520" y="265" />
            </Array>
          </mxGeometry>
        </mxCell>
        <mxCell id="-RrKpvEbUyqXBDjPTacY-30" style="edgeStyle=orthogonalEdgeStyle;rounded=0;orthogonalLoop=1;jettySize=auto;html=1;entryX=0;entryY=0.5;entryDx=0;entryDy=0;" edge="1" parent="1" source="8qIt2EoNWS3R_uUc7VmZ-2" target="-RrKpvEbUyqXBDjPTacY-26">
          <mxGeometry relative="1" as="geometry" />
        </mxCell>
        <mxCell id="-RrKpvEbUyqXBDjPTacY-32" style="edgeStyle=orthogonalEdgeStyle;rounded=0;orthogonalLoop=1;jettySize=auto;html=1;entryX=0;entryY=0.5;entryDx=0;entryDy=0;" edge="1" parent="1" source="8qIt2EoNWS3R_uUc7VmZ-2" target="-RrKpvEbUyqXBDjPTacY-31">
          <mxGeometry relative="1" as="geometry" />
        </mxCell>
        <mxCell id="8qIt2EoNWS3R_uUc7VmZ-2" value="Ученик" style="shape=umlActor;verticalLabelPosition=bottom;verticalAlign=top;html=1;outlineConnect=0;" parent="1" vertex="1">
          <mxGeometry x="80" y="100" width="30" height="60" as="geometry" />
        </mxCell>
        <mxCell id="-RrKpvEbUyqXBDjPTacY-22" style="edgeStyle=orthogonalEdgeStyle;rounded=0;orthogonalLoop=1;jettySize=auto;html=1;entryX=1;entryY=0.5;entryDx=0;entryDy=0;" edge="1" parent="1" source="8qIt2EoNWS3R_uUc7VmZ-3" target="-RrKpvEbUyqXBDjPTacY-20">
          <mxGeometry relative="1" as="geometry" />
        </mxCell>
        <mxCell id="-RrKpvEbUyqXBDjPTacY-34" style="edgeStyle=orthogonalEdgeStyle;rounded=0;orthogonalLoop=1;jettySize=auto;html=1;entryX=1;entryY=0.5;entryDx=0;entryDy=0;" edge="1" parent="1" source="8qIt2EoNWS3R_uUc7VmZ-3" target="-RrKpvEbUyqXBDjPTacY-33">
          <mxGeometry relative="1" as="geometry">
            <Array as="points">
              <mxPoint x="1200" y="470" />
              <mxPoint x="1200" y="440" />
            </Array>
          </mxGeometry>
        </mxCell>
        <mxCell id="-RrKpvEbUyqXBDjPTacY-42" style="edgeStyle=orthogonalEdgeStyle;rounded=0;orthogonalLoop=1;jettySize=auto;html=1;entryX=1;entryY=0.5;entryDx=0;entryDy=0;" edge="1" parent="1" source="8qIt2EoNWS3R_uUc7VmZ-3" target="-RrKpvEbUyqXBDjPTacY-41">
          <mxGeometry relative="1" as="geometry" />
        </mxCell>
        <mxCell id="8qIt2EoNWS3R_uUc7VmZ-3" value="Преподаватель" style="shape=umlActor;verticalLabelPosition=bottom;verticalAlign=top;html=1;outlineConnect=0;" parent="1" vertex="1">
          <mxGeometry x="1570" y="440" width="30" height="60" as="geometry" />
        </mxCell>
        <mxCell id="-RrKpvEbUyqXBDjPTacY-47" style="edgeStyle=orthogonalEdgeStyle;rounded=0;orthogonalLoop=1;jettySize=auto;html=1;entryX=0;entryY=0.5;entryDx=0;entryDy=0;" edge="1" parent="1" source="8qIt2EoNWS3R_uUc7VmZ-4" target="-RrKpvEbUyqXBDjPTacY-46">
          <mxGeometry relative="1" as="geometry" />
        </mxCell>
        <mxCell id="-RrKpvEbUyqXBDjPTacY-56" style="edgeStyle=orthogonalEdgeStyle;rounded=0;orthogonalLoop=1;jettySize=auto;html=1;entryX=0;entryY=0.5;entryDx=0;entryDy=0;" edge="1" parent="1" source="8qIt2EoNWS3R_uUc7VmZ-4" target="-RrKpvEbUyqXBDjPTacY-55">
          <mxGeometry relative="1" as="geometry" />
        </mxCell>
        <mxCell id="8qIt2EoNWS3R_uUc7VmZ-4" value="Администратор" style="shape=umlActor;verticalLabelPosition=bottom;verticalAlign=top;html=1;outlineConnect=0;" parent="1" vertex="1">
          <mxGeometry x="80" y="890" width="30" height="60" as="geometry" />
        </mxCell>
        <mxCell id="8qIt2EoNWS3R_uUc7VmZ-10" style="edgeStyle=orthogonalEdgeStyle;rounded=0;orthogonalLoop=1;jettySize=auto;html=1;entryX=0;entryY=0.5;entryDx=0;entryDy=0;" parent="1" source="8qIt2EoNWS3R_uUc7VmZ-8" target="8qIt2EoNWS3R_uUc7VmZ-9" edge="1">
          <mxGeometry relative="1" as="geometry" />
        </mxCell>
        <mxCell id="8qIt2EoNWS3R_uUc7VmZ-12" style="edgeStyle=orthogonalEdgeStyle;rounded=0;orthogonalLoop=1;jettySize=auto;html=1;exitX=1;exitY=0.5;exitDx=0;exitDy=0;entryX=0;entryY=0.5;entryDx=0;entryDy=0;" parent="1" source="8qIt2EoNWS3R_uUc7VmZ-8" target="8qIt2EoNWS3R_uUc7VmZ-11" edge="1">
          <mxGeometry relative="1" as="geometry" />
        </mxCell>
        <mxCell id="8qIt2EoNWS3R_uUc7VmZ-8" value="Регистрация" style="ellipse;whiteSpace=wrap;html=1;" parent="1" vertex="1">
          <mxGeometry x="230" y="-40" width="100" height="60" as="geometry" />
        </mxCell>
        <mxCell id="8qIt2EoNWS3R_uUc7VmZ-9" value="Задать пароль" style="ellipse;whiteSpace=wrap;html=1;" parent="1" vertex="1">
          <mxGeometry x="370" y="-120" width="120" height="80" as="geometry" />
        </mxCell>
        <mxCell id="8qIt2EoNWS3R_uUc7VmZ-11" value="Привязать контактные данные" style="ellipse;whiteSpace=wrap;html=1;" parent="1" vertex="1">
          <mxGeometry x="370" y="-10" width="120" height="80" as="geometry" />
        </mxCell>
        <mxCell id="8qIt2EoNWS3R_uUc7VmZ-20" style="edgeStyle=orthogonalEdgeStyle;rounded=0;orthogonalLoop=1;jettySize=auto;html=1;exitX=0;exitY=0.5;exitDx=0;exitDy=0;dashed=1;" parent="1" source="8qIt2EoNWS3R_uUc7VmZ-13" edge="1">
          <mxGeometry relative="1" as="geometry">
            <mxPoint x="490" y="29.999999999999773" as="targetPoint" />
          </mxGeometry>
        </mxCell>
        <mxCell id="8qIt2EoNWS3R_uUc7VmZ-13" value="Привязать номер телефона" style="ellipse;whiteSpace=wrap;html=1;" parent="1" vertex="1">
          <mxGeometry x="540" y="-50" width="120" height="80" as="geometry" />
        </mxCell>
        <mxCell id="8qIt2EoNWS3R_uUc7VmZ-19" style="edgeStyle=orthogonalEdgeStyle;rounded=0;orthogonalLoop=1;jettySize=auto;html=1;exitX=0;exitY=0.5;exitDx=0;exitDy=0;entryX=1;entryY=0.5;entryDx=0;entryDy=0;dashed=1;" parent="1" source="8qIt2EoNWS3R_uUc7VmZ-14" target="8qIt2EoNWS3R_uUc7VmZ-11" edge="1">
          <mxGeometry relative="1" as="geometry" />
        </mxCell>
        <mxCell id="8qIt2EoNWS3R_uUc7VmZ-14" value="Привязать электронную почту" style="ellipse;whiteSpace=wrap;html=1;" parent="1" vertex="1">
          <mxGeometry x="540" y="50" width="120" height="80" as="geometry" />
        </mxCell>
        <mxCell id="8qIt2EoNWS3R_uUc7VmZ-17" value="extend" style="text;html=1;align=center;verticalAlign=middle;whiteSpace=wrap;rounded=0;" parent="1" vertex="1">
          <mxGeometry x="460" y="70" width="60" height="30" as="geometry" />
        </mxCell>
        <mxCell id="8qIt2EoNWS3R_uUc7VmZ-18" value="extend" style="text;html=1;align=center;verticalAlign=middle;whiteSpace=wrap;rounded=0;" parent="1" vertex="1">
          <mxGeometry x="460" y="-40" width="60" height="30" as="geometry" />
        </mxCell>
        <mxCell id="-RrKpvEbUyqXBDjPTacY-7" style="edgeStyle=orthogonalEdgeStyle;rounded=0;orthogonalLoop=1;jettySize=auto;html=1;entryX=0;entryY=0.5;entryDx=0;entryDy=0;dashed=1;" edge="1" parent="1" source="-RrKpvEbUyqXBDjPTacY-2" target="-RrKpvEbUyqXBDjPTacY-6">
          <mxGeometry relative="1" as="geometry" />
        </mxCell>
        <mxCell id="-RrKpvEbUyqXBDjPTacY-9" style="edgeStyle=orthogonalEdgeStyle;rounded=0;orthogonalLoop=1;jettySize=auto;html=1;entryX=0;entryY=0.5;entryDx=0;entryDy=0;dashed=1;" edge="1" parent="1" source="-RrKpvEbUyqXBDjPTacY-2" target="-RrKpvEbUyqXBDjPTacY-8">
          <mxGeometry relative="1" as="geometry" />
        </mxCell>
        <mxCell id="-RrKpvEbUyqXBDjPTacY-2" value="Войти в учетную запись" style="ellipse;whiteSpace=wrap;html=1;" vertex="1" parent="1">
          <mxGeometry x="230" y="290" width="120" height="80" as="geometry" />
        </mxCell>
        <mxCell id="-RrKpvEbUyqXBDjPTacY-5" style="edgeStyle=orthogonalEdgeStyle;rounded=0;orthogonalLoop=1;jettySize=auto;html=1;entryX=1;entryY=0.5;entryDx=0;entryDy=0;dashed=1;" edge="1" parent="1" source="-RrKpvEbUyqXBDjPTacY-4" target="-RrKpvEbUyqXBDjPTacY-2">
          <mxGeometry relative="1" as="geometry" />
        </mxCell>
        <mxCell id="-RrKpvEbUyqXBDjPTacY-4" value="Сбросить пароль" style="ellipse;whiteSpace=wrap;html=1;" vertex="1" parent="1">
          <mxGeometry x="390" y="200" width="120" height="80" as="geometry" />
        </mxCell>
        <mxCell id="-RrKpvEbUyqXBDjPTacY-6" value="Ввести контактные данные" style="ellipse;whiteSpace=wrap;html=1;" vertex="1" parent="1">
          <mxGeometry x="460" y="320" width="120" height="80" as="geometry" />
        </mxCell>
        <mxCell id="-RrKpvEbUyqXBDjPTacY-8" value="Ввести пароль" style="ellipse;whiteSpace=wrap;html=1;" vertex="1" parent="1">
          <mxGeometry x="390" y="430" width="120" height="80" as="geometry" />
        </mxCell>
        <mxCell id="-RrKpvEbUyqXBDjPTacY-10" value="extend" style="text;html=1;align=center;verticalAlign=middle;whiteSpace=wrap;rounded=0;" vertex="1" parent="1">
          <mxGeometry x="320" y="250" width="60" height="30" as="geometry" />
        </mxCell>
        <mxCell id="-RrKpvEbUyqXBDjPTacY-11" value="include" style="text;html=1;align=center;verticalAlign=middle;whiteSpace=wrap;rounded=0;" vertex="1" parent="1">
          <mxGeometry x="320" y="370" width="60" height="30" as="geometry" />
        </mxCell>
        <mxCell id="-RrKpvEbUyqXBDjPTacY-12" value="include" style="text;html=1;align=center;verticalAlign=middle;whiteSpace=wrap;rounded=0;" vertex="1" parent="1">
          <mxGeometry x="380" y="300" width="60" height="30" as="geometry" />
        </mxCell>
        <mxCell id="-RrKpvEbUyqXBDjPTacY-15" style="edgeStyle=orthogonalEdgeStyle;rounded=0;orthogonalLoop=1;jettySize=auto;html=1;exitX=1;exitY=0.5;exitDx=0;exitDy=0;entryX=0;entryY=0.5;entryDx=0;entryDy=0;dashed=1;" edge="1" parent="1" source="-RrKpvEbUyqXBDjPTacY-13" target="-RrKpvEbUyqXBDjPTacY-14">
          <mxGeometry relative="1" as="geometry" />
        </mxCell>
        <mxCell id="-RrKpvEbUyqXBDjPTacY-13" value="Записаться на курс" style="ellipse;whiteSpace=wrap;html=1;" vertex="1" parent="1">
          <mxGeometry x="230" y="585" width="120" height="80" as="geometry" />
        </mxCell>
        <mxCell id="-RrKpvEbUyqXBDjPTacY-14" value="Выбрать преподавателя" style="ellipse;whiteSpace=wrap;html=1;" vertex="1" parent="1">
          <mxGeometry x="400" y="585" width="120" height="80" as="geometry" />
        </mxCell>
        <mxCell id="-RrKpvEbUyqXBDjPTacY-16" value="include" style="text;html=1;align=center;verticalAlign=middle;whiteSpace=wrap;rounded=0;" vertex="1" parent="1">
          <mxGeometry x="340" y="600" width="60" height="30" as="geometry" />
        </mxCell>
        <mxCell id="-RrKpvEbUyqXBDjPTacY-18" value="Узнать расписание" style="ellipse;whiteSpace=wrap;html=1;" vertex="1" parent="1">
          <mxGeometry x="330" y="90" width="120" height="80" as="geometry" />
        </mxCell>
        <mxCell id="-RrKpvEbUyqXBDjPTacY-20" value="Отправить сообщение" style="ellipse;whiteSpace=wrap;html=1;" vertex="1" parent="1">
          <mxGeometry x="707" y="225" width="120" height="80" as="geometry" />
        </mxCell>
        <mxCell id="-RrKpvEbUyqXBDjPTacY-24" style="edgeStyle=orthogonalEdgeStyle;rounded=0;orthogonalLoop=1;jettySize=auto;html=1;entryX=0.5;entryY=0;entryDx=0;entryDy=0;dashed=1;" edge="1" parent="1" source="-RrKpvEbUyqXBDjPTacY-23" target="-RrKpvEbUyqXBDjPTacY-20">
          <mxGeometry relative="1" as="geometry" />
        </mxCell>
        <mxCell id="-RrKpvEbUyqXBDjPTacY-23" value="Прикрепить файл" style="ellipse;whiteSpace=wrap;html=1;" vertex="1" parent="1">
          <mxGeometry x="707" y="70" width="120" height="80" as="geometry" />
        </mxCell>
        <mxCell id="-RrKpvEbUyqXBDjPTacY-25" value="extend" style="text;html=1;align=center;verticalAlign=middle;whiteSpace=wrap;rounded=0;" vertex="1" parent="1">
          <mxGeometry x="760" y="180" width="60" height="30" as="geometry" />
        </mxCell>
        <mxCell id="-RrKpvEbUyqXBDjPTacY-28" style="edgeStyle=orthogonalEdgeStyle;rounded=0;orthogonalLoop=1;jettySize=auto;html=1;exitX=1;exitY=0.5;exitDx=0;exitDy=0;dashed=1;" edge="1" parent="1" source="-RrKpvEbUyqXBDjPTacY-26" target="-RrKpvEbUyqXBDjPTacY-27">
          <mxGeometry relative="1" as="geometry" />
        </mxCell>
        <mxCell id="-RrKpvEbUyqXBDjPTacY-26" value="Сдать дз" style="ellipse;whiteSpace=wrap;html=1;" vertex="1" parent="1">
          <mxGeometry x="230" y="720" width="120" height="80" as="geometry" />
        </mxCell>
        <mxCell id="-RrKpvEbUyqXBDjPTacY-27" value="Выбрать файл" style="ellipse;whiteSpace=wrap;html=1;" vertex="1" parent="1">
          <mxGeometry x="400" y="720" width="120" height="80" as="geometry" />
        </mxCell>
        <mxCell id="-RrKpvEbUyqXBDjPTacY-29" value="include" style="text;html=1;align=center;verticalAlign=middle;whiteSpace=wrap;rounded=0;" vertex="1" parent="1">
          <mxGeometry x="340" y="720" width="60" height="30" as="geometry" />
        </mxCell>
        <mxCell id="-RrKpvEbUyqXBDjPTacY-31" value="Пройти урок" style="ellipse;whiteSpace=wrap;html=1;" vertex="1" parent="1">
          <mxGeometry x="230" y="490" width="120" height="80" as="geometry" />
        </mxCell>
        <mxCell id="-RrKpvEbUyqXBDjPTacY-36" style="edgeStyle=orthogonalEdgeStyle;rounded=0;orthogonalLoop=1;jettySize=auto;html=1;entryX=1;entryY=0.5;entryDx=0;entryDy=0;dashed=1;" edge="1" parent="1" source="-RrKpvEbUyqXBDjPTacY-33" target="-RrKpvEbUyqXBDjPTacY-35">
          <mxGeometry relative="1" as="geometry" />
        </mxCell>
        <mxCell id="-RrKpvEbUyqXBDjPTacY-33" value="Проверить дз" style="ellipse;whiteSpace=wrap;html=1;" vertex="1" parent="1">
          <mxGeometry x="1000" y="400" width="120" height="80" as="geometry" />
        </mxCell>
        <mxCell id="-RrKpvEbUyqXBDjPTacY-35" value="Поставить оценку" style="ellipse;whiteSpace=wrap;html=1;" vertex="1" parent="1">
          <mxGeometry x="830" y="350" width="120" height="80" as="geometry" />
        </mxCell>
        <mxCell id="-RrKpvEbUyqXBDjPTacY-38" style="edgeStyle=orthogonalEdgeStyle;rounded=0;orthogonalLoop=1;jettySize=auto;html=1;entryX=0;entryY=0.5;entryDx=0;entryDy=0;dashed=1;" edge="1" parent="1" source="-RrKpvEbUyqXBDjPTacY-37" target="-RrKpvEbUyqXBDjPTacY-33">
          <mxGeometry relative="1" as="geometry" />
        </mxCell>
        <mxCell id="-RrKpvEbUyqXBDjPTacY-37" value="Дать комментарий" style="ellipse;whiteSpace=wrap;html=1;" vertex="1" parent="1">
          <mxGeometry x="830" y="470" width="120" height="80" as="geometry" />
        </mxCell>
        <mxCell id="-RrKpvEbUyqXBDjPTacY-39" value="extend" style="text;html=1;align=center;verticalAlign=middle;whiteSpace=wrap;rounded=0;" vertex="1" parent="1">
          <mxGeometry x="950" y="510" width="60" height="30" as="geometry" />
        </mxCell>
        <mxCell id="-RrKpvEbUyqXBDjPTacY-40" value="include" style="text;html=1;align=center;verticalAlign=middle;whiteSpace=wrap;rounded=0;" vertex="1" parent="1">
          <mxGeometry x="950" y="360" width="60" height="30" as="geometry" />
        </mxCell>
        <mxCell id="-RrKpvEbUyqXBDjPTacY-44" style="edgeStyle=orthogonalEdgeStyle;rounded=0;orthogonalLoop=1;jettySize=auto;html=1;dashed=1;" edge="1" parent="1" source="-RrKpvEbUyqXBDjPTacY-41" target="-RrKpvEbUyqXBDjPTacY-43">
          <mxGeometry relative="1" as="geometry" />
        </mxCell>
        <mxCell id="-RrKpvEbUyqXBDjPTacY-41" value="создать курс" style="ellipse;whiteSpace=wrap;html=1;" vertex="1" parent="1">
          <mxGeometry x="1000" y="610" width="120" height="80" as="geometry" />
        </mxCell>
        <mxCell id="-RrKpvEbUyqXBDjPTacY-43" value="Загрузить файлы" style="ellipse;whiteSpace=wrap;html=1;" vertex="1" parent="1">
          <mxGeometry x="780" y="610" width="120" height="80" as="geometry" />
        </mxCell>
        <mxCell id="-RrKpvEbUyqXBDjPTacY-45" value="include" style="text;html=1;align=center;verticalAlign=middle;whiteSpace=wrap;rounded=0;" vertex="1" parent="1">
          <mxGeometry x="920" y="620" width="60" height="30" as="geometry" />
        </mxCell>
        <mxCell id="-RrKpvEbUyqXBDjPTacY-46" value="Модерация" style="ellipse;whiteSpace=wrap;html=1;" vertex="1" parent="1">
          <mxGeometry x="230" y="840" width="120" height="80" as="geometry" />
        </mxCell>
        <mxCell id="-RrKpvEbUyqXBDjPTacY-49" style="edgeStyle=orthogonalEdgeStyle;rounded=0;orthogonalLoop=1;jettySize=auto;html=1;entryX=1;entryY=0.5;entryDx=0;entryDy=0;dashed=1;" edge="1" parent="1" source="-RrKpvEbUyqXBDjPTacY-48" target="-RrKpvEbUyqXBDjPTacY-46">
          <mxGeometry relative="1" as="geometry" />
        </mxCell>
        <mxCell id="-RrKpvEbUyqXBDjPTacY-48" value="Забанить пользователя" style="ellipse;whiteSpace=wrap;html=1;" vertex="1" parent="1">
          <mxGeometry x="400" y="840" width="120" height="80" as="geometry" />
        </mxCell>
        <mxCell id="-RrKpvEbUyqXBDjPTacY-50" value="extend" style="text;html=1;align=center;verticalAlign=middle;whiteSpace=wrap;rounded=0;" vertex="1" parent="1">
          <mxGeometry x="340" y="850" width="60" height="30" as="geometry" />
        </mxCell>
        <mxCell id="-RrKpvEbUyqXBDjPTacY-53" style="edgeStyle=orthogonalEdgeStyle;rounded=0;orthogonalLoop=1;jettySize=auto;html=1;entryX=0.5;entryY=1;entryDx=0;entryDy=0;dashed=1;" edge="1" parent="1" source="-RrKpvEbUyqXBDjPTacY-52" target="-RrKpvEbUyqXBDjPTacY-46">
          <mxGeometry relative="1" as="geometry" />
        </mxCell>
        <mxCell id="-RrKpvEbUyqXBDjPTacY-52" value="Удалить контент" style="ellipse;whiteSpace=wrap;html=1;" vertex="1" parent="1">
          <mxGeometry x="400" y="950" width="120" height="80" as="geometry" />
        </mxCell>
        <mxCell id="-RrKpvEbUyqXBDjPTacY-54" value="extend" style="text;html=1;align=center;verticalAlign=middle;whiteSpace=wrap;rounded=0;" vertex="1" parent="1">
          <mxGeometry x="310" y="960" width="60" height="30" as="geometry" />
        </mxCell>
        <mxCell id="-RrKpvEbUyqXBDjPTacY-55" value="Поддержка работоспособности системы" style="ellipse;whiteSpace=wrap;html=1;" vertex="1" parent="1">
          <mxGeometry x="230" y="1020" width="120" height="80" as="geometry" />
        </mxCell>
        <mxCell id="-RrKpvEbUyqXBDjPTacY-57" value="Онлайн школа" style="text;html=1;align=center;verticalAlign=middle;whiteSpace=wrap;rounded=0;" vertex="1" parent="1">
          <mxGeometry x="660" y="-120" width="60" height="30" as="geometry" />
        </mxCell>
      </root>
    </mxGraphModel>
  </diagram>
</mxfile>
